<svg width="334" height="333" xmlns="http://www.w3.org/2000/svg" xmlns:xlink="http://www.w3.org/1999/xlink" xml:space="preserve" overflow="hidden"><defs><clipPath id="clip0"><rect x="50" y="0" width="334" height="333"/></clipPath><clipPath id="clip1"><rect x="51" y="0" width="333" height="333"/></clipPath><clipPath id="clip2"><rect x="51" y="0" width="333" height="333"/></clipPath><clipPath id="clip3"><rect x="51" y="0" width="333" height="333"/></clipPath></defs><g clip-path="url(#clip0)" transform="translate(-50 0)"><g clip-path="url(#clip1)"><g clip-path="url(#clip2)"><g clip-path="url(#clip3)"><path d="M144.656 228.938C144.656 242.348 133.785 253.219 120.375 253.219 106.965 253.219 96.0938 242.348 96.0938 228.938 96.0938 215.527 106.965 204.656 120.375 204.656 133.785 204.656 144.656 215.527 144.656 228.938Z" fill="#F77D00" fill-rule="nonzero" fill-opacity="1"/><path d="M345.844 228.938C345.844 242.348 334.973 253.219 321.562 253.219 308.152 253.219 297.281 242.348 297.281 228.938 297.281 215.527 308.152 204.656 321.562 204.656 334.973 204.656 345.844 215.527 345.844 228.938Z" fill="#F77D00" fill-rule="nonzero" fill-opacity="1"/><path d="M64.875 83.25 259.125 83.25 259.125 166.5 64.875 166.5Z" fill="#F77D00" fill-rule="nonzero" fill-opacity="1"/><path d="M286.875 117.938 307.688 117.938C313.931 117.938 319.481 122.1 320.869 127.997L327.806 151.931C327.806 152.278 328.153 152.278 328.153 152.625L286.875 152.625 286.875 117.938ZM307.688 104.062 273 104.062 273 152.625 273 173.438 273 228.938 286.875 228.938C286.875 209.859 302.484 194.25 321.562 194.25 340.641 194.25 356.25 209.859 356.25 228.938 363.881 228.938 370.125 222.694 370.125 215.062L370.125 180.375C370.125 175.866 368.044 172.05 364.575 169.275L346.191 155.4C343.763 153.666 342.028 150.891 341.334 148.116L334.397 124.181C330.928 112.388 319.828 104.062 307.688 104.062Z" fill="#F77D00" fill-rule="nonzero" fill-opacity="1"/><path d="M259.125 228.938 155.062 228.938C155.062 209.859 139.453 194.25 120.375 194.25 101.297 194.25 85.6875 209.859 85.6875 228.938L64.875 228.938 64.875 180.375 259.125 180.375 259.125 228.938Z" fill="#F77D00" fill-rule="nonzero" fill-opacity="1"/></g></g></g></g></svg>